<mxfile host="65bd71144e">
    <diagram id="1YFxwhipXY8r6Y6Q5YDT" name="Page-1">
        <mxGraphModel dx="564" dy="350" grid="1" gridSize="10" guides="1" tooltips="1" connect="1" arrows="1" fold="1" page="1" pageScale="1" pageWidth="827" pageHeight="1169" math="0" shadow="0">
            <root>
                <mxCell id="0"/>
                <mxCell id="1" parent="0"/>
                <mxCell id="2" value="nuxtローカル開発環境構築&lt;br&gt;&lt;br&gt;1.json-serverインストール&lt;br&gt;&lt;br&gt;2.package.json, nuxt.config.jsいじる" style="text;html=1;align=left;verticalAlign=top;resizable=0;points=[];autosize=1;strokeColor=#000000;" parent="1" vertex="1">
                    <mxGeometry x="40" y="30" width="210" height="80" as="geometry"/>
                </mxCell>
                <mxCell id="3" value="&lt;div&gt;&lt;span&gt;### `json-server`&lt;/span&gt;&lt;br&gt;&lt;/div&gt;&lt;div&gt;&amp;lt;!-- https://tabinou.com/archives/2512 --&amp;gt;&lt;/div&gt;&lt;div&gt;install: npm install --save-dev json-server&lt;/div&gt;&lt;div&gt;version確認: npx json-server -v&lt;/div&gt;&lt;div&gt;jsonサーバ起動: npx json-server --watch db.json&lt;/div&gt;&lt;div&gt;※db.jsonファイルがない場合、自動で作成される&lt;/div&gt;&lt;div&gt;&amp;lt;!-- https://qiita.com/y-tsutsu/items/67f71fc8430a199a3efd --&amp;gt;&lt;/div&gt;&lt;div&gt;routes.jsonファイル作成&lt;/div&gt;&lt;div&gt;&lt;br&gt;&lt;/div&gt;&lt;div&gt;jsonサーバ起動(ポート指定): npx json-server --watch db.json --routes routes.json --port 3001&lt;/div&gt;&lt;div&gt;&lt;br&gt;&lt;/div&gt;&lt;div&gt;### nuxtとjson-server同時起動コマンド作成&lt;/div&gt;&lt;div&gt;&amp;lt;!-- https://qiita.com/takeo-asai/items/f1099b8bc5046da5e87b --&amp;gt;&lt;/div&gt;&lt;div&gt;インストール: npm install concurrently -D&lt;/div&gt;&lt;div&gt;package.jsonのscript内に下記を追記:&lt;/div&gt;&lt;div&gt;&quot;dev_json&quot;: &quot;concurrently \&quot;npm run json-mock\&quot; \&quot;npm run dev\&quot;&quot;&lt;/div&gt;&lt;div&gt;&lt;br&gt;&lt;/div&gt;&lt;div&gt;&lt;br&gt;&lt;/div&gt;" style="text;html=1;align=left;verticalAlign=top;resizable=0;points=[];autosize=1;strokeColor=#000000;" parent="1" vertex="1">
                    <mxGeometry x="260" y="20" width="510" height="260" as="geometry"/>
                </mxCell>
                <mxCell id="4" value="ほしいapi&lt;br&gt;1.会社名(公開済みごと、未公開ごとなど)" style="text;html=1;align=left;verticalAlign=middle;resizable=0;points=[];autosize=1;strokeColor=#000000;" parent="1" vertex="1">
                    <mxGeometry x="20" y="170" width="240" height="30" as="geometry"/>
                </mxCell>
                <mxCell id="5" value="To Do&lt;br&gt;・chartjs tooltipで資本金？を表示&lt;br&gt;&lt;br&gt;〇・chartjs-chart-financialで表示&lt;br&gt;X・信用倍率も併記&lt;br&gt;→別グラフとして表示する？&lt;br&gt;&lt;br&gt;・vue3.0で書き直す" style="text;html=1;align=left;verticalAlign=middle;resizable=0;points=[];autosize=1;strokeColor=#000000;" parent="1" vertex="1">
                    <mxGeometry x="40" y="280" width="190" height="120" as="geometry"/>
                </mxCell>
                <mxCell id="ig_ntxyra1lJ4XbZ5mGs-5" value="表形式で表示&lt;br&gt;&lt;br&gt;下記サイトのTableのような表示をnuxtで再現したかったが、断念。&lt;br&gt;http://json2table.com/#&lt;br&gt;&lt;br&gt;とりあえず、下記でTree表示に対応した。&lt;br&gt;vue-json-pretty&lt;br&gt;https://www.npmjs.com/package/vue-json-pretty" style="text;html=1;align=left;verticalAlign=top;resizable=0;points=[];autosize=1;strokeColor=#000000;" vertex="1" parent="1">
                    <mxGeometry x="260" y="290" width="380" height="120" as="geometry"/>
                </mxCell>
            </root>
        </mxGraphModel>
    </diagram>
    <diagram id="DXulwIS53BB-GbVR4dh3" name="image">
        <mxGraphModel dx="804" dy="261" grid="1" gridSize="10" guides="1" tooltips="1" connect="1" arrows="1" fold="1" page="1" pageScale="1" pageWidth="827" pageHeight="1169" math="0" shadow="0">
            <root>
                <mxCell id="tE4BbN-4u7K3I2lurqO_-0"/>
                <mxCell id="tE4BbN-4u7K3I2lurqO_-1" parent="tE4BbN-4u7K3I2lurqO_-0"/>
                <mxCell id="tE4BbN-4u7K3I2lurqO_-8" style="edgeStyle=orthogonalEdgeStyle;rounded=0;orthogonalLoop=1;jettySize=auto;html=1;exitX=0.75;exitY=1;exitDx=0;exitDy=0;entryX=0.75;entryY=0;entryDx=0;entryDy=0;" parent="tE4BbN-4u7K3I2lurqO_-1" source="tE4BbN-4u7K3I2lurqO_-2" target="tE4BbN-4u7K3I2lurqO_-7" edge="1">
                    <mxGeometry relative="1" as="geometry"/>
                </mxCell>
                <mxCell id="tE4BbN-4u7K3I2lurqO_-12" style="edgeStyle=orthogonalEdgeStyle;rounded=0;orthogonalLoop=1;jettySize=auto;html=1;exitX=0;exitY=0.75;exitDx=0;exitDy=0;entryX=1;entryY=0.75;entryDx=0;entryDy=0;" parent="tE4BbN-4u7K3I2lurqO_-1" source="tE4BbN-4u7K3I2lurqO_-2" target="tE4BbN-4u7K3I2lurqO_-3" edge="1">
                    <mxGeometry relative="1" as="geometry"/>
                </mxCell>
                <mxCell id="tE4BbN-4u7K3I2lurqO_-2" value="store/index.js" style="whiteSpace=wrap;html=1;" parent="tE4BbN-4u7K3I2lurqO_-1" vertex="1">
                    <mxGeometry x="240" y="30" width="120" height="60" as="geometry"/>
                </mxCell>
                <mxCell id="tE4BbN-4u7K3I2lurqO_-5" style="edgeStyle=orthogonalEdgeStyle;rounded=0;orthogonalLoop=1;jettySize=auto;html=1;exitX=1;exitY=0.25;exitDx=0;exitDy=0;entryX=0;entryY=0.25;entryDx=0;entryDy=0;" parent="tE4BbN-4u7K3I2lurqO_-1" source="tE4BbN-4u7K3I2lurqO_-3" target="tE4BbN-4u7K3I2lurqO_-2" edge="1">
                    <mxGeometry relative="1" as="geometry"/>
                </mxCell>
                <mxCell id="tE4BbN-4u7K3I2lurqO_-3" value="pages/各ページ" style="whiteSpace=wrap;html=1;" parent="tE4BbN-4u7K3I2lurqO_-1" vertex="1">
                    <mxGeometry x="70" y="30" width="120" height="60" as="geometry"/>
                </mxCell>
                <mxCell id="tE4BbN-4u7K3I2lurqO_-6" value="commit" style="text;html=1;align=center;verticalAlign=middle;resizable=0;points=[];autosize=1;strokeColor=none;" parent="tE4BbN-4u7K3I2lurqO_-1" vertex="1">
                    <mxGeometry x="190" y="20" width="50" height="20" as="geometry"/>
                </mxCell>
                <mxCell id="tE4BbN-4u7K3I2lurqO_-10" style="edgeStyle=orthogonalEdgeStyle;rounded=0;orthogonalLoop=1;jettySize=auto;html=1;exitX=0.25;exitY=0;exitDx=0;exitDy=0;entryX=0.25;entryY=1;entryDx=0;entryDy=0;" parent="tE4BbN-4u7K3I2lurqO_-1" source="tE4BbN-4u7K3I2lurqO_-7" target="tE4BbN-4u7K3I2lurqO_-2" edge="1">
                    <mxGeometry relative="1" as="geometry"/>
                </mxCell>
                <mxCell id="tE4BbN-4u7K3I2lurqO_-7" value="flask" style="whiteSpace=wrap;html=1;" parent="tE4BbN-4u7K3I2lurqO_-1" vertex="1">
                    <mxGeometry x="240" y="170" width="120" height="60" as="geometry"/>
                </mxCell>
                <mxCell id="tE4BbN-4u7K3I2lurqO_-9" value="api/request" style="text;html=1;align=center;verticalAlign=middle;resizable=0;points=[];autosize=1;strokeColor=none;" parent="tE4BbN-4u7K3I2lurqO_-1" vertex="1">
                    <mxGeometry x="325" y="110" width="70" height="20" as="geometry"/>
                </mxCell>
                <mxCell id="tE4BbN-4u7K3I2lurqO_-11" value="api/response" style="text;html=1;align=center;verticalAlign=middle;resizable=0;points=[];autosize=1;strokeColor=none;" parent="tE4BbN-4u7K3I2lurqO_-1" vertex="1">
                    <mxGeometry x="205" y="120" width="80" height="20" as="geometry"/>
                </mxCell>
                <mxCell id="tE4BbN-4u7K3I2lurqO_-13" value="store" style="text;html=1;align=center;verticalAlign=middle;resizable=0;points=[];autosize=1;strokeColor=none;" parent="tE4BbN-4u7K3I2lurqO_-1" vertex="1">
                    <mxGeometry x="190" y="80" width="40" height="20" as="geometry"/>
                </mxCell>
            </root>
        </mxGraphModel>
    </diagram>
    <diagram id="FEyMsxz_L21BVMjUiSZh" name="hierarchyについて">
        <mxGraphModel dx="1340" dy="782" grid="1" gridSize="10" guides="1" tooltips="1" connect="1" arrows="1" fold="1" page="1" pageScale="1" pageWidth="827" pageHeight="1169" math="0" shadow="0">
            <root>
                <mxCell id="N04FtUZ0s6JrWru38fER-0"/>
                <mxCell id="N04FtUZ0s6JrWru38fER-1" parent="N04FtUZ0s6JrWru38fER-0"/>
                <mxCell id="N04FtUZ0s6JrWru38fER-24" value="VueJsonToTableNew.vue&lt;br&gt;&lt;br&gt;&lt;div&gt;&amp;lt;template&amp;gt;&lt;/div&gt;&lt;div&gt;&amp;nbsp; &amp;nbsp; &amp;nbsp; &amp;nbsp; &amp;lt;p&amp;gt;hierarchy:{{hierarchy}}&amp;lt;/p&amp;gt;&lt;/div&gt;&lt;div&gt;&amp;nbsp; &amp;nbsp; &amp;nbsp; &amp;nbsp; &amp;lt;VueJsonToTable&lt;/div&gt;&lt;div&gt;&amp;nbsp; &amp;nbsp; &amp;nbsp; &amp;nbsp; &amp;nbsp; :data=&quot;data[row]&quot;&lt;/div&gt;&lt;div&gt;&amp;nbsp; &amp;nbsp; &amp;nbsp; &amp;nbsp; &amp;nbsp; :previousData=&quot;arrData&quot;&lt;/div&gt;&lt;div&gt;&amp;nbsp; &amp;nbsp; &amp;nbsp; &amp;nbsp; &amp;nbsp; :hierarchy=&quot;hieNum&quot;&lt;/div&gt;&lt;div&gt;&amp;nbsp; &amp;nbsp; &amp;nbsp; &amp;nbsp; /&amp;gt;&lt;/div&gt;&lt;div&gt;&amp;lt;/template&amp;gt;&lt;/div&gt;&lt;div&gt;&lt;br&gt;&lt;/div&gt;&lt;div&gt;&lt;br&gt;&lt;/div&gt;&lt;div&gt;&amp;lt;script&amp;gt;&lt;/div&gt;&lt;div&gt;import VueJsonToTable from &quot;./VueJsonToTable&quot;;&lt;/div&gt;&lt;div&gt;export default {&lt;/div&gt;&lt;div&gt;&amp;nbsp; name: &quot;VueJsonToTable&quot;,&lt;/div&gt;&lt;div&gt;&amp;nbsp; components: {&lt;/div&gt;&lt;div&gt;&amp;nbsp; &amp;nbsp; VueJsonToTable&lt;/div&gt;&lt;div&gt;&amp;nbsp; },&lt;/div&gt;&lt;div&gt;&amp;nbsp; props: {&lt;/div&gt;&lt;div&gt;&amp;nbsp; &amp;nbsp; // jsonの階層管理&lt;/div&gt;&lt;div&gt;&amp;nbsp; &amp;nbsp; hierarchy:{&lt;/div&gt;&lt;div&gt;&amp;nbsp; &amp;nbsp; &amp;nbsp; type: Number,&lt;/div&gt;&lt;div&gt;&amp;nbsp; &amp;nbsp; &amp;nbsp; default:0&lt;/div&gt;&lt;div&gt;&amp;nbsp; &amp;nbsp; },&lt;/div&gt;&lt;div&gt;&amp;nbsp; },&lt;/div&gt;&lt;div&gt;&amp;nbsp; data(){&lt;/div&gt;&lt;div&gt;&amp;nbsp; &amp;nbsp; return{&lt;/div&gt;&lt;div&gt;&amp;nbsp; &amp;nbsp; &amp;nbsp; hieNum:this.hierarchy&lt;/div&gt;&lt;div&gt;&amp;nbsp; &amp;nbsp; }&lt;/div&gt;&lt;div&gt;&amp;nbsp; },&lt;/div&gt;&lt;div&gt;&amp;nbsp; created(){&lt;/div&gt;&lt;div&gt;&amp;nbsp; &amp;nbsp; this.hieNum = this.hierarchy + 1&lt;/div&gt;&lt;div&gt;&amp;nbsp; },&lt;/div&gt;&lt;div&gt;&amp;nbsp; }&lt;/div&gt;&lt;div&gt;};&lt;/div&gt;&lt;div&gt;&amp;lt;/script&amp;gt;&lt;/div&gt;" style="whiteSpace=wrap;html=1;align=left;verticalAlign=top;" vertex="1" parent="N04FtUZ0s6JrWru38fER-1">
                    <mxGeometry x="330" y="90" width="300" height="540" as="geometry"/>
                </mxCell>
                <mxCell id="N04FtUZ0s6JrWru38fER-3" value="hierarychy: jsonの階層を管理するための値" style="text;html=1;align=center;verticalAlign=middle;resizable=0;points=[];autosize=1;strokeColor=none;" vertex="1" parent="N04FtUZ0s6JrWru38fER-1">
                    <mxGeometry x="35" y="10" width="240" height="20" as="geometry"/>
                </mxCell>
                <mxCell id="N04FtUZ0s6JrWru38fER-4" value="VueJsonToTableNew.vue&lt;br&gt;&lt;br&gt;&lt;div&gt;&amp;lt;template&amp;gt;&lt;/div&gt;&lt;div&gt;&amp;nbsp; &amp;nbsp; &amp;nbsp; &amp;nbsp; &amp;lt;p&amp;gt;hierarchy:{{hierarchy}}&amp;lt;/p&amp;gt;&lt;/div&gt;&lt;div&gt;&amp;nbsp; &amp;nbsp; &amp;nbsp; &amp;nbsp; &amp;lt;VueJsonToTable&lt;/div&gt;&lt;div&gt;&amp;nbsp; &amp;nbsp; &amp;nbsp; &amp;nbsp; &amp;nbsp; :data=&quot;data[row]&quot;&lt;/div&gt;&lt;div&gt;&amp;nbsp; &amp;nbsp; &amp;nbsp; &amp;nbsp; &amp;nbsp; :previousData=&quot;arrData&quot;&lt;/div&gt;&lt;div&gt;&amp;nbsp; &amp;nbsp; &amp;nbsp; &amp;nbsp; &amp;nbsp; :hierarchy=&quot;hieNum&quot;&lt;/div&gt;&lt;div&gt;&amp;nbsp; &amp;nbsp; &amp;nbsp; &amp;nbsp; /&amp;gt;&lt;/div&gt;&lt;div&gt;&amp;lt;/template&amp;gt;&lt;/div&gt;&lt;div&gt;&lt;br&gt;&lt;/div&gt;&lt;div&gt;&lt;br&gt;&lt;/div&gt;&lt;div&gt;&amp;lt;script&amp;gt;&lt;/div&gt;&lt;div&gt;import VueJsonToTable from &quot;./VueJsonToTable&quot;;&lt;/div&gt;&lt;div&gt;export default {&lt;/div&gt;&lt;div&gt;&amp;nbsp; name: &quot;VueJsonToTable&quot;,&lt;/div&gt;&lt;div&gt;&amp;nbsp; components: {&lt;/div&gt;&lt;div&gt;&amp;nbsp; &amp;nbsp; VueJsonToTable&lt;/div&gt;&lt;div&gt;&amp;nbsp; },&lt;/div&gt;&lt;div&gt;&amp;nbsp; props: {&lt;/div&gt;&lt;div&gt;&amp;nbsp; &amp;nbsp; // jsonの階層管理&lt;/div&gt;&lt;div&gt;&amp;nbsp; &amp;nbsp; hierarchy:{&lt;/div&gt;&lt;div&gt;&amp;nbsp; &amp;nbsp; &amp;nbsp; type: Number,&lt;/div&gt;&lt;div&gt;&amp;nbsp; &amp;nbsp; &amp;nbsp; default:0&lt;/div&gt;&lt;div&gt;&amp;nbsp; &amp;nbsp; },&lt;/div&gt;&lt;div&gt;&amp;nbsp; },&lt;/div&gt;&lt;div&gt;&amp;nbsp; data(){&lt;/div&gt;&lt;div&gt;&amp;nbsp; &amp;nbsp; return{&lt;/div&gt;&lt;div&gt;&amp;nbsp; &amp;nbsp; &amp;nbsp; hieNum:this.hierarchy&lt;/div&gt;&lt;div&gt;&amp;nbsp; &amp;nbsp; }&lt;/div&gt;&lt;div&gt;&amp;nbsp; },&lt;/div&gt;&lt;div&gt;&amp;nbsp; created(){&lt;/div&gt;&lt;div&gt;&amp;nbsp; &amp;nbsp; this.hieNum = this.hierarchy + 1&lt;/div&gt;&lt;div&gt;&amp;nbsp; },&lt;/div&gt;&lt;div&gt;&amp;nbsp; }&lt;/div&gt;&lt;div&gt;};&lt;/div&gt;&lt;div&gt;&amp;lt;/script&amp;gt;&lt;/div&gt;" style="whiteSpace=wrap;html=1;align=left;verticalAlign=top;" vertex="1" parent="N04FtUZ0s6JrWru38fER-1">
                    <mxGeometry x="10" y="90" width="300" height="540" as="geometry"/>
                </mxCell>
                <mxCell id="N04FtUZ0s6JrWru38fER-7" value="hierarchy: 0" style="text;html=1;align=center;verticalAlign=middle;resizable=0;points=[];autosize=1;strokeColor=none;" vertex="1" parent="N04FtUZ0s6JrWru38fER-1">
                    <mxGeometry x="70" y="60" width="80" height="20" as="geometry"/>
                </mxCell>
                <mxCell id="N04FtUZ0s6JrWru38fER-9" value="hierarchy: 1" style="text;html=1;align=center;verticalAlign=middle;resizable=0;points=[];autosize=1;strokeColor=none;" vertex="1" parent="N04FtUZ0s6JrWru38fER-1">
                    <mxGeometry x="340" y="60" width="80" height="20" as="geometry"/>
                </mxCell>
                <mxCell id="N04FtUZ0s6JrWru38fER-13" value="&lt;span style=&quot;text-align: center&quot;&gt;hierarchy: 0&lt;/span&gt;" style="whiteSpace=wrap;html=1;align=left;verticalAlign=top;strokeColor=#007FFF;" vertex="1" parent="N04FtUZ0s6JrWru38fER-1">
                    <mxGeometry x="210" y="130" width="80" height="30" as="geometry"/>
                </mxCell>
                <mxCell id="N04FtUZ0s6JrWru38fER-20" style="edgeStyle=orthogonalEdgeStyle;rounded=0;orthogonalLoop=1;jettySize=auto;html=1;exitX=1;exitY=0.5;exitDx=0;exitDy=0;entryX=0.75;entryY=1;entryDx=0;entryDy=0;strokeColor=#007FFF;" edge="1" parent="N04FtUZ0s6JrWru38fER-1" source="N04FtUZ0s6JrWru38fER-14" target="N04FtUZ0s6JrWru38fER-21">
                    <mxGeometry relative="1" as="geometry">
                        <Array as="points">
                            <mxPoint x="320" y="585"/>
                            <mxPoint x="320" y="240"/>
                            <mxPoint x="230" y="240"/>
                        </Array>
                    </mxGeometry>
                </mxCell>
                <mxCell id="N04FtUZ0s6JrWru38fER-14" value="&lt;div style=&quot;text-align: center&quot;&gt;&lt;span style=&quot;text-align: left&quot;&gt;this.hieNum = 0 + 1 = 1&lt;/span&gt;&lt;br&gt;&lt;/div&gt;" style="whiteSpace=wrap;html=1;align=left;verticalAlign=top;strokeColor=#007FFF;" vertex="1" parent="N04FtUZ0s6JrWru38fER-1">
                    <mxGeometry x="140" y="570" width="140" height="30" as="geometry"/>
                </mxCell>
                <mxCell id="N04FtUZ0s6JrWru38fER-16" style="edgeStyle=orthogonalEdgeStyle;rounded=0;orthogonalLoop=1;jettySize=auto;html=1;exitX=0.5;exitY=1;exitDx=0;exitDy=0;entryX=0.5;entryY=0;entryDx=0;entryDy=0;strokeColor=#007FFF;" edge="1" parent="N04FtUZ0s6JrWru38fER-1" source="N04FtUZ0s6JrWru38fER-15" target="N04FtUZ0s6JrWru38fER-14">
                    <mxGeometry relative="1" as="geometry"/>
                </mxCell>
                <mxCell id="N04FtUZ0s6JrWru38fER-15" value="&lt;div style=&quot;text-align: center&quot;&gt;&lt;span style=&quot;text-align: left&quot;&gt;this.hieNum = 0&lt;/span&gt;&lt;br&gt;&lt;/div&gt;" style="whiteSpace=wrap;html=1;align=left;verticalAlign=top;strokeColor=#007FFF;" vertex="1" parent="N04FtUZ0s6JrWru38fER-1">
                    <mxGeometry x="160" y="480" width="140" height="30" as="geometry"/>
                </mxCell>
                <mxCell id="N04FtUZ0s6JrWru38fER-18" style="edgeStyle=orthogonalEdgeStyle;rounded=0;orthogonalLoop=1;jettySize=auto;html=1;entryX=0.5;entryY=0;entryDx=0;entryDy=0;strokeColor=#007FFF;" edge="1" parent="N04FtUZ0s6JrWru38fER-1" target="N04FtUZ0s6JrWru38fER-15">
                    <mxGeometry relative="1" as="geometry">
                        <mxPoint x="90" y="430" as="sourcePoint"/>
                        <mxPoint x="220" y="580" as="targetPoint"/>
                        <Array as="points">
                            <mxPoint x="230" y="430"/>
                        </Array>
                    </mxGeometry>
                </mxCell>
                <mxCell id="N04FtUZ0s6JrWru38fER-34" style="edgeStyle=orthogonalEdgeStyle;rounded=0;orthogonalLoop=1;jettySize=auto;html=1;exitX=1;exitY=0.5;exitDx=0;exitDy=0;entryX=0;entryY=0.5;entryDx=0;entryDy=0;strokeColor=#007FFF;" edge="1" parent="N04FtUZ0s6JrWru38fER-1" source="N04FtUZ0s6JrWru38fER-21" target="N04FtUZ0s6JrWru38fER-32">
                    <mxGeometry relative="1" as="geometry"/>
                </mxCell>
                <mxCell id="N04FtUZ0s6JrWru38fER-21" value=":hierarchy=0" style="whiteSpace=wrap;html=1;align=left;verticalAlign=top;strokeColor=#007FFF;" vertex="1" parent="N04FtUZ0s6JrWru38fER-1">
                    <mxGeometry x="170" y="190" width="80" height="30" as="geometry"/>
                </mxCell>
                <mxCell id="N04FtUZ0s6JrWru38fER-25" value="&lt;span style=&quot;text-align: center&quot;&gt;hierarchy: 1&lt;/span&gt;" style="whiteSpace=wrap;html=1;align=left;verticalAlign=top;strokeColor=#007FFF;" vertex="1" parent="N04FtUZ0s6JrWru38fER-1">
                    <mxGeometry x="530" y="130" width="80" height="30" as="geometry"/>
                </mxCell>
                <mxCell id="N04FtUZ0s6JrWru38fER-26" style="edgeStyle=orthogonalEdgeStyle;rounded=0;orthogonalLoop=1;jettySize=auto;html=1;exitX=1;exitY=0.5;exitDx=0;exitDy=0;entryX=0.75;entryY=1;entryDx=0;entryDy=0;strokeColor=#007FFF;" edge="1" source="N04FtUZ0s6JrWru38fER-27" target="N04FtUZ0s6JrWru38fER-31" parent="N04FtUZ0s6JrWru38fER-1">
                    <mxGeometry relative="1" as="geometry">
                        <Array as="points">
                            <mxPoint x="640" y="585"/>
                            <mxPoint x="640" y="240"/>
                            <mxPoint x="550" y="240"/>
                        </Array>
                    </mxGeometry>
                </mxCell>
                <mxCell id="N04FtUZ0s6JrWru38fER-27" value="&lt;div style=&quot;text-align: center&quot;&gt;&lt;span style=&quot;text-align: left&quot;&gt;this.hieNum = 1 + 1 = 2&lt;/span&gt;&lt;br&gt;&lt;/div&gt;" style="whiteSpace=wrap;html=1;align=left;verticalAlign=top;strokeColor=#007FFF;" vertex="1" parent="N04FtUZ0s6JrWru38fER-1">
                    <mxGeometry x="460" y="570" width="140" height="30" as="geometry"/>
                </mxCell>
                <mxCell id="N04FtUZ0s6JrWru38fER-28" style="edgeStyle=orthogonalEdgeStyle;rounded=0;orthogonalLoop=1;jettySize=auto;html=1;exitX=0.5;exitY=1;exitDx=0;exitDy=0;entryX=0.5;entryY=0;entryDx=0;entryDy=0;strokeColor=#007FFF;" edge="1" source="N04FtUZ0s6JrWru38fER-29" target="N04FtUZ0s6JrWru38fER-27" parent="N04FtUZ0s6JrWru38fER-1">
                    <mxGeometry relative="1" as="geometry"/>
                </mxCell>
                <mxCell id="N04FtUZ0s6JrWru38fER-29" value="&lt;div style=&quot;text-align: center&quot;&gt;&lt;span style=&quot;text-align: left&quot;&gt;this.hieNum = 1&lt;/span&gt;&lt;br&gt;&lt;/div&gt;" style="whiteSpace=wrap;html=1;align=left;verticalAlign=top;strokeColor=#007FFF;" vertex="1" parent="N04FtUZ0s6JrWru38fER-1">
                    <mxGeometry x="480" y="480" width="140" height="30" as="geometry"/>
                </mxCell>
                <mxCell id="N04FtUZ0s6JrWru38fER-30" style="edgeStyle=orthogonalEdgeStyle;rounded=0;orthogonalLoop=1;jettySize=auto;html=1;entryX=0.5;entryY=0;entryDx=0;entryDy=0;strokeColor=#007FFF;exitX=1;exitY=0.5;exitDx=0;exitDy=0;" edge="1" target="N04FtUZ0s6JrWru38fER-29" parent="N04FtUZ0s6JrWru38fER-1" source="N04FtUZ0s6JrWru38fER-32">
                    <mxGeometry relative="1" as="geometry">
                        <mxPoint x="410" y="430" as="sourcePoint"/>
                        <mxPoint x="540" y="580" as="targetPoint"/>
                        <Array as="points">
                            <mxPoint x="510" y="430"/>
                            <mxPoint x="550" y="430"/>
                        </Array>
                    </mxGeometry>
                </mxCell>
                <mxCell id="N04FtUZ0s6JrWru38fER-31" value=":hierarchy=2" style="whiteSpace=wrap;html=1;align=left;verticalAlign=top;strokeColor=#007FFF;" vertex="1" parent="N04FtUZ0s6JrWru38fER-1">
                    <mxGeometry x="490" y="190" width="80" height="30" as="geometry"/>
                </mxCell>
                <mxCell id="N04FtUZ0s6JrWru38fER-32" value="&lt;span style=&quot;text-align: center&quot;&gt;hierarchy: 1&lt;/span&gt;" style="whiteSpace=wrap;html=1;align=left;verticalAlign=top;strokeColor=#007FFF;" vertex="1" parent="N04FtUZ0s6JrWru38fER-1">
                    <mxGeometry x="430" y="390" width="80" height="30" as="geometry"/>
                </mxCell>
                <mxCell id="N04FtUZ0s6JrWru38fER-35" value="VueJsonToTableNew.vue&lt;br&gt;&lt;br&gt;&lt;div&gt;&amp;lt;template&amp;gt;&lt;/div&gt;&lt;div&gt;&amp;nbsp; &amp;nbsp; &amp;nbsp; &amp;nbsp; &amp;lt;p&amp;gt;hierarchy:{{hierarchy}}&amp;lt;/p&amp;gt;&lt;/div&gt;&lt;div&gt;&amp;nbsp; &amp;nbsp; &amp;nbsp; &amp;nbsp; &amp;lt;VueJsonToTable&lt;/div&gt;&lt;div&gt;&amp;nbsp; &amp;nbsp; &amp;nbsp; &amp;nbsp; &amp;nbsp; :data=&quot;data[row]&quot;&lt;/div&gt;&lt;div&gt;&amp;nbsp; &amp;nbsp; &amp;nbsp; &amp;nbsp; &amp;nbsp; :previousData=&quot;arrData&quot;&lt;/div&gt;&lt;div&gt;&amp;nbsp; &amp;nbsp; &amp;nbsp; &amp;nbsp; &amp;nbsp; :hierarchy=&quot;hieNum&quot;&lt;/div&gt;&lt;div&gt;&amp;nbsp; &amp;nbsp; &amp;nbsp; &amp;nbsp; /&amp;gt;&lt;/div&gt;&lt;div&gt;&amp;lt;/template&amp;gt;&lt;/div&gt;&lt;div&gt;&lt;br&gt;&lt;/div&gt;&lt;div&gt;&lt;br&gt;&lt;/div&gt;&lt;div&gt;&amp;lt;script&amp;gt;&lt;/div&gt;&lt;div&gt;import VueJsonToTable from &quot;./VueJsonToTable&quot;;&lt;/div&gt;&lt;div&gt;export default {&lt;/div&gt;&lt;div&gt;&amp;nbsp; name: &quot;VueJsonToTable&quot;,&lt;/div&gt;&lt;div&gt;&amp;nbsp; components: {&lt;/div&gt;&lt;div&gt;&amp;nbsp; &amp;nbsp; VueJsonToTable&lt;/div&gt;&lt;div&gt;&amp;nbsp; },&lt;/div&gt;&lt;div&gt;&amp;nbsp; props: {&lt;/div&gt;&lt;div&gt;&amp;nbsp; &amp;nbsp; // jsonの階層管理&lt;/div&gt;&lt;div&gt;&amp;nbsp; &amp;nbsp; hierarchy:{&lt;/div&gt;&lt;div&gt;&amp;nbsp; &amp;nbsp; &amp;nbsp; type: Number,&lt;/div&gt;&lt;div&gt;&amp;nbsp; &amp;nbsp; &amp;nbsp; default:0&lt;/div&gt;&lt;div&gt;&amp;nbsp; &amp;nbsp; },&lt;/div&gt;&lt;div&gt;&amp;nbsp; },&lt;/div&gt;&lt;div&gt;&amp;nbsp; data(){&lt;/div&gt;&lt;div&gt;&amp;nbsp; &amp;nbsp; return{&lt;/div&gt;&lt;div&gt;&amp;nbsp; &amp;nbsp; &amp;nbsp; hieNum:this.hierarchy&lt;/div&gt;&lt;div&gt;&amp;nbsp; &amp;nbsp; }&lt;/div&gt;&lt;div&gt;&amp;nbsp; },&lt;/div&gt;&lt;div&gt;&amp;nbsp; created(){&lt;/div&gt;&lt;div&gt;&amp;nbsp; &amp;nbsp; this.hieNum = this.hierarchy + 1&lt;/div&gt;&lt;div&gt;&amp;nbsp; },&lt;/div&gt;&lt;div&gt;&amp;nbsp; }&lt;/div&gt;&lt;div&gt;};&lt;/div&gt;&lt;div&gt;&amp;lt;/script&amp;gt;&lt;/div&gt;" style="whiteSpace=wrap;html=1;align=left;verticalAlign=top;" vertex="1" parent="N04FtUZ0s6JrWru38fER-1">
                    <mxGeometry x="650" y="90" width="300" height="540" as="geometry"/>
                </mxCell>
                <mxCell id="N04FtUZ0s6JrWru38fER-36" value="&lt;span style=&quot;text-align: center&quot;&gt;hierarchy: 2&lt;/span&gt;" style="whiteSpace=wrap;html=1;align=left;verticalAlign=top;strokeColor=#007FFF;" vertex="1" parent="N04FtUZ0s6JrWru38fER-1">
                    <mxGeometry x="850" y="130" width="80" height="30" as="geometry"/>
                </mxCell>
                <mxCell id="N04FtUZ0s6JrWru38fER-37" style="edgeStyle=orthogonalEdgeStyle;rounded=0;orthogonalLoop=1;jettySize=auto;html=1;exitX=1;exitY=0.5;exitDx=0;exitDy=0;entryX=0.75;entryY=1;entryDx=0;entryDy=0;strokeColor=#007FFF;" edge="1" source="N04FtUZ0s6JrWru38fER-38" target="N04FtUZ0s6JrWru38fER-42" parent="N04FtUZ0s6JrWru38fER-1">
                    <mxGeometry relative="1" as="geometry">
                        <Array as="points">
                            <mxPoint x="960" y="585"/>
                            <mxPoint x="960" y="240"/>
                            <mxPoint x="870" y="240"/>
                        </Array>
                    </mxGeometry>
                </mxCell>
                <mxCell id="N04FtUZ0s6JrWru38fER-38" value="&lt;div style=&quot;text-align: center&quot;&gt;&lt;span style=&quot;text-align: left&quot;&gt;this.hieNum = 2 + 1 = 3&lt;/span&gt;&lt;br&gt;&lt;/div&gt;" style="whiteSpace=wrap;html=1;align=left;verticalAlign=top;strokeColor=#007FFF;" vertex="1" parent="N04FtUZ0s6JrWru38fER-1">
                    <mxGeometry x="780" y="570" width="140" height="30" as="geometry"/>
                </mxCell>
                <mxCell id="N04FtUZ0s6JrWru38fER-39" style="edgeStyle=orthogonalEdgeStyle;rounded=0;orthogonalLoop=1;jettySize=auto;html=1;exitX=0.5;exitY=1;exitDx=0;exitDy=0;entryX=0.5;entryY=0;entryDx=0;entryDy=0;strokeColor=#007FFF;" edge="1" source="N04FtUZ0s6JrWru38fER-40" target="N04FtUZ0s6JrWru38fER-38" parent="N04FtUZ0s6JrWru38fER-1">
                    <mxGeometry relative="1" as="geometry"/>
                </mxCell>
                <mxCell id="N04FtUZ0s6JrWru38fER-40" value="&lt;div style=&quot;text-align: center&quot;&gt;&lt;span style=&quot;text-align: left&quot;&gt;this.hieNum = 2&lt;/span&gt;&lt;br&gt;&lt;/div&gt;" style="whiteSpace=wrap;html=1;align=left;verticalAlign=top;strokeColor=#007FFF;" vertex="1" parent="N04FtUZ0s6JrWru38fER-1">
                    <mxGeometry x="800" y="480" width="140" height="30" as="geometry"/>
                </mxCell>
                <mxCell id="N04FtUZ0s6JrWru38fER-41" style="edgeStyle=orthogonalEdgeStyle;rounded=0;orthogonalLoop=1;jettySize=auto;html=1;entryX=0.5;entryY=0;entryDx=0;entryDy=0;strokeColor=#007FFF;exitX=1;exitY=0.5;exitDx=0;exitDy=0;" edge="1" source="N04FtUZ0s6JrWru38fER-43" target="N04FtUZ0s6JrWru38fER-40" parent="N04FtUZ0s6JrWru38fER-1">
                    <mxGeometry relative="1" as="geometry">
                        <mxPoint x="730" y="430" as="sourcePoint"/>
                        <mxPoint x="860" y="580" as="targetPoint"/>
                        <Array as="points">
                            <mxPoint x="830" y="430"/>
                            <mxPoint x="870" y="430"/>
                        </Array>
                    </mxGeometry>
                </mxCell>
                <mxCell id="N04FtUZ0s6JrWru38fER-46" style="edgeStyle=orthogonalEdgeStyle;rounded=0;orthogonalLoop=1;jettySize=auto;html=1;exitX=1;exitY=0.5;exitDx=0;exitDy=0;strokeColor=#007FFF;" edge="1" parent="N04FtUZ0s6JrWru38fER-1" source="N04FtUZ0s6JrWru38fER-42">
                    <mxGeometry relative="1" as="geometry">
                        <mxPoint x="1000" y="204.66666666666674" as="targetPoint"/>
                    </mxGeometry>
                </mxCell>
                <mxCell id="N04FtUZ0s6JrWru38fER-42" value=":hierarchy=3" style="whiteSpace=wrap;html=1;align=left;verticalAlign=top;strokeColor=#007FFF;" vertex="1" parent="N04FtUZ0s6JrWru38fER-1">
                    <mxGeometry x="810" y="190" width="80" height="30" as="geometry"/>
                </mxCell>
                <mxCell id="N04FtUZ0s6JrWru38fER-43" value="&lt;span style=&quot;text-align: center&quot;&gt;hierarchy: 2&lt;/span&gt;" style="whiteSpace=wrap;html=1;align=left;verticalAlign=top;strokeColor=#007FFF;" vertex="1" parent="N04FtUZ0s6JrWru38fER-1">
                    <mxGeometry x="750" y="390" width="80" height="30" as="geometry"/>
                </mxCell>
                <mxCell id="N04FtUZ0s6JrWru38fER-44" value="hierarchy: 2" style="text;html=1;align=center;verticalAlign=middle;resizable=0;points=[];autosize=1;strokeColor=none;" vertex="1" parent="N04FtUZ0s6JrWru38fER-1">
                    <mxGeometry x="650" y="60" width="80" height="20" as="geometry"/>
                </mxCell>
                <mxCell id="N04FtUZ0s6JrWru38fER-45" style="edgeStyle=orthogonalEdgeStyle;rounded=0;orthogonalLoop=1;jettySize=auto;html=1;exitX=1;exitY=0.5;exitDx=0;exitDy=0;entryX=0;entryY=0.5;entryDx=0;entryDy=0;strokeColor=#007FFF;" edge="1" target="N04FtUZ0s6JrWru38fER-43" parent="N04FtUZ0s6JrWru38fER-1">
                    <mxGeometry relative="1" as="geometry">
                        <mxPoint x="570" y="204.9999999999999" as="sourcePoint"/>
                    </mxGeometry>
                </mxCell>
            </root>
        </mxGraphModel>
    </diagram>
    <diagram id="rDdObV9bj9ZK8hPxYMW9" name="arrayについて">
        <mxGraphModel dx="1410" dy="653" grid="1" gridSize="10" guides="1" tooltips="1" connect="1" arrows="1" fold="1" page="1" pageScale="1" pageWidth="827" pageHeight="1169" math="0" shadow="0">
            <root>
                <mxCell id="lAavp4hnNdj44nGLBsUd-0"/>
                <mxCell id="lAavp4hnNdj44nGLBsUd-1" parent="lAavp4hnNdj44nGLBsUd-0"/>
                <mxCell id="poQ1xiTR2WBCP2Hb4bgy-0" value="VueJsonToTableNew.vue&lt;br&gt;&lt;br&gt;&lt;div&gt;&amp;lt;template&amp;gt;&lt;span&gt;&amp;nbsp; &amp;nbsp;&lt;/span&gt;&lt;/div&gt;&lt;div&gt;&amp;nbsp; &amp;nbsp; &amp;lt;table border=&quot;1&quot;&amp;gt;&lt;/div&gt;&lt;div&gt;&amp;nbsp; &amp;nbsp; &amp;lt;tr&lt;/div&gt;&lt;div&gt;&amp;nbsp; &amp;nbsp; &amp;nbsp; v-for=&quot;(dataKey, index) in dataKeys&quot;&lt;/div&gt;&lt;div&gt;&amp;nbsp; &amp;nbsp; &amp;nbsp; :key=&quot;index&quot;&lt;/div&gt;&lt;div&gt;&amp;nbsp; &amp;nbsp; &amp;gt;&lt;/div&gt;&lt;div&gt;&lt;span&gt;&amp;nbsp; &amp;nbsp; &amp;nbsp; &amp;nbsp; &amp;nbsp; &amp;lt;th&amp;gt;&lt;/span&gt;&lt;br&gt;&lt;/div&gt;&lt;div&gt;&amp;nbsp; &amp;nbsp; &amp;nbsp; &amp;nbsp; &amp;nbsp; &amp;lt;p&amp;gt;hierarchy:{{hierarchy}}&amp;lt;/p&amp;gt;&lt;/div&gt;&lt;div&gt;&amp;nbsp; &amp;nbsp; &amp;nbsp; &amp;nbsp; &amp;nbsp; &amp;lt;p&amp;gt;arrIndex:{{arrIndex}}&amp;lt;/p&amp;gt;&lt;/div&gt;&lt;div&gt;&amp;nbsp; &amp;nbsp; &amp;nbsp; &amp;nbsp; &amp;nbsp;&amp;nbsp;&lt;/div&gt;&lt;div&gt;&amp;nbsp; &amp;nbsp; &amp;nbsp; &amp;nbsp; &amp;nbsp; &amp;lt;p&amp;gt;{{sameHeader(dataKey, index)}}&amp;lt;/p&amp;gt;&lt;/div&gt;&lt;div&gt;&amp;nbsp; &amp;nbsp; &amp;nbsp; &amp;nbsp; &amp;nbsp; &amp;lt;!-- &amp;lt;p&amp;gt;{{diffHeader}}&amp;lt;/p&amp;gt; --&amp;gt;&lt;/div&gt;&lt;div&gt;&amp;nbsp; &amp;nbsp; &amp;nbsp; &amp;nbsp; &amp;nbsp; &amp;lt;!-- &amp;lt;th v-if=&quot;!diffHeader&quot;&amp;gt; --&amp;gt;&lt;/div&gt;&lt;div&gt;&amp;nbsp; &amp;nbsp; &amp;nbsp; &amp;nbsp; &amp;nbsp; &amp;lt;th v-if=&quot;!sameHeader(dataKey, index)&quot;&amp;gt;&lt;/div&gt;&lt;div&gt;&amp;nbsp; &amp;nbsp; &amp;nbsp; &amp;nbsp; &amp;nbsp; &amp;nbsp; header:&lt;/div&gt;&lt;div&gt;&amp;nbsp; &amp;nbsp; &amp;nbsp; &amp;nbsp; &amp;nbsp; &amp;nbsp; {{ keyTitle(dataKey) }}&lt;/div&gt;&lt;div&gt;&amp;nbsp; &amp;nbsp; &amp;nbsp; &amp;nbsp; &amp;nbsp; &amp;lt;/th&amp;gt;&lt;/div&gt;&lt;div&gt;&amp;nbsp; &amp;nbsp; &amp;nbsp; &amp;lt;td v-if=&quot;['string', 'number'].includes(checkValueType(data[dataKey]))&quot;&amp;gt;&lt;/div&gt;&lt;div&gt;&amp;nbsp; &amp;nbsp; &amp;nbsp; &amp;nbsp; &amp;nbsp; data[dataKey]:&amp;nbsp;&lt;/div&gt;&lt;div&gt;&amp;nbsp; &amp;nbsp; &amp;nbsp; &amp;nbsp; &amp;nbsp; {{ data[dataKey] }}&lt;/div&gt;&lt;div&gt;&amp;nbsp; &amp;nbsp; &amp;nbsp; &amp;lt;/td&amp;gt;&lt;/div&gt;&lt;div&gt;&amp;nbsp; &amp;nbsp; &amp;nbsp; &amp;lt;div v-else-if=&quot;checkValueType(data[dataKey]) === 'array'&quot;&amp;gt;&lt;/div&gt;&lt;div&gt;&amp;nbsp; &amp;nbsp; &amp;nbsp; &amp;nbsp; &amp;lt;tr v-for=&quot;(arrRow, index2) in data[dataKey]&quot; :key=&quot;index2&quot; class=&quot;d-flex&quot;&amp;gt;&lt;/div&gt;&lt;div&gt;&amp;nbsp; &amp;nbsp; &amp;nbsp; &amp;nbsp; &amp;nbsp; &amp;lt;div&amp;gt;--&amp;lt;/div&amp;gt;&lt;/div&gt;&lt;div&gt;&amp;nbsp; &amp;nbsp; &amp;nbsp; &amp;nbsp; &amp;nbsp; &amp;lt;td v-if=&quot;['string', 'number'].includes(checkValueType(arrRow))&quot;&amp;gt;&lt;/div&gt;&lt;div&gt;&amp;nbsp; &amp;nbsp; &amp;nbsp; &amp;nbsp; &amp;nbsp; &amp;nbsp; arrRow:&lt;/div&gt;&lt;div&gt;&amp;nbsp; &amp;nbsp; &amp;nbsp; &amp;nbsp; &amp;nbsp; &amp;nbsp; {{ arrRow }}&lt;/div&gt;&lt;div&gt;&amp;nbsp; &amp;nbsp; &amp;nbsp; &amp;nbsp; &amp;nbsp; &amp;lt;/td&amp;gt;&lt;/div&gt;&lt;div&gt;&amp;nbsp; &amp;nbsp; &amp;nbsp; &amp;nbsp; &amp;nbsp; &amp;lt;div v-else&amp;gt;&lt;/div&gt;&lt;div&gt;&amp;nbsp; &amp;nbsp; &amp;nbsp; &amp;nbsp; &amp;nbsp; &amp;nbsp; &amp;lt;VueJsonToTable&amp;nbsp;&lt;/div&gt;&lt;div&gt;&amp;nbsp; &amp;nbsp; &amp;nbsp; &amp;nbsp; &amp;nbsp; &amp;nbsp; &amp;nbsp; :data=&quot;arrRow&quot;&lt;/div&gt;&lt;div&gt;&amp;nbsp; &amp;nbsp; &amp;nbsp; &amp;nbsp; &amp;nbsp; &amp;nbsp; &amp;nbsp; :previousData=&quot;data[dataKey]&quot;&lt;/div&gt;&lt;div&gt;&amp;nbsp; &amp;nbsp; &amp;nbsp; &amp;nbsp; &amp;nbsp; &amp;nbsp; &amp;nbsp; :hierarchy=&quot;hieNum&quot;&lt;/div&gt;&lt;div&gt;&amp;nbsp; &amp;nbsp; &amp;nbsp; &amp;nbsp; &amp;nbsp; &amp;nbsp; /&amp;gt;&lt;/div&gt;&lt;div&gt;&amp;nbsp; &amp;nbsp; &amp;nbsp; &amp;nbsp; &amp;nbsp; &amp;lt;/div&amp;gt;&lt;/div&gt;&lt;div&gt;&amp;nbsp; &amp;nbsp; &amp;nbsp; &amp;nbsp; &amp;lt;/tr&amp;gt;&lt;/div&gt;&lt;div&gt;&amp;nbsp; &amp;nbsp; &amp;nbsp; &amp;lt;/div&amp;gt;&lt;/div&gt;&lt;div&gt;&amp;nbsp; &amp;nbsp; &amp;nbsp; &amp;lt;div v-else&amp;gt;&lt;/div&gt;&lt;div&gt;&amp;nbsp; &amp;nbsp; &amp;nbsp; &amp;nbsp; &amp;lt;VueJsonToTable&lt;/div&gt;&lt;div&gt;&amp;nbsp; &amp;nbsp; &amp;nbsp; &amp;nbsp; &amp;nbsp; :data=&quot;data[dataKey]&quot;&lt;/div&gt;&lt;div&gt;&amp;nbsp; &amp;nbsp; &amp;nbsp; &amp;nbsp; &amp;nbsp; :previousData=&quot;dataKeys&quot;&lt;/div&gt;&lt;div&gt;&amp;nbsp; &amp;nbsp; &amp;nbsp; &amp;nbsp; &amp;nbsp; :hierarchy=&quot;hieNum&quot;&lt;/div&gt;&lt;div&gt;&amp;nbsp; &amp;nbsp; &amp;nbsp; &amp;nbsp; /&amp;gt;&lt;/div&gt;&lt;div&gt;&amp;nbsp; &amp;nbsp; &amp;nbsp; &amp;lt;/div&amp;gt;&lt;/div&gt;&lt;div&gt;&amp;nbsp; &amp;nbsp; &amp;lt;/tr&amp;gt;&lt;/div&gt;&lt;div&gt;&amp;nbsp; &amp;nbsp; &amp;lt;/table&amp;gt;&lt;/div&gt;&lt;div&gt;&amp;nbsp; &amp;lt;/div&amp;gt;&lt;/div&gt;&lt;div&gt;&amp;lt;/template&amp;gt;&lt;/div&gt;" style="whiteSpace=wrap;html=1;align=left;verticalAlign=top;" vertex="1" parent="lAavp4hnNdj44nGLBsUd-1">
                    <mxGeometry x="320" y="190" width="430" height="720" as="geometry"/>
                </mxCell>
                <mxCell id="poQ1xiTR2WBCP2Hb4bgy-2" value="&lt;div&gt;&quot;indpndntFinInfo&quot;: [&lt;/div&gt;&lt;div&gt;&amp;nbsp; &amp;nbsp; &amp;nbsp; &amp;nbsp; &amp;nbsp; &amp;nbsp; {&lt;/div&gt;&lt;div&gt;&amp;nbsp; &amp;nbsp; &amp;nbsp; &amp;nbsp; &amp;nbsp; &amp;nbsp; &amp;nbsp; &quot;amountOfSalls&quot;: 14479693000,&amp;nbsp;&lt;/div&gt;&lt;div&gt;&amp;nbsp; &amp;nbsp; &amp;nbsp; &amp;nbsp; &amp;nbsp; &amp;nbsp; &amp;nbsp; &quot;bps&quot;: 1167.15,&amp;nbsp;&lt;/div&gt;&lt;div&gt;&amp;nbsp; &amp;nbsp; &amp;nbsp; &amp;nbsp; &amp;nbsp; &amp;nbsp; &amp;nbsp; &quot;dividend&quot;: 0.0,&amp;nbsp;&lt;/div&gt;&lt;div&gt;&amp;nbsp; &amp;nbsp; &amp;nbsp; &amp;nbsp; &amp;nbsp; &amp;nbsp; &amp;nbsp; &quot;eps&quot;: 47.13,&amp;nbsp;&lt;/div&gt;&lt;div&gt;&amp;nbsp; &amp;nbsp; &amp;nbsp; &amp;nbsp; &amp;nbsp; &amp;nbsp; &amp;nbsp; &quot;fiscalYear&quot;: &quot;202006&quot;,&amp;nbsp;&lt;/div&gt;&lt;div&gt;&amp;nbsp; &amp;nbsp; &amp;nbsp; &amp;nbsp; &amp;nbsp; &amp;nbsp; &amp;nbsp; &quot;netIncome&quot;: 265362000,&amp;nbsp;&lt;/div&gt;&lt;div&gt;&amp;nbsp; &amp;nbsp; &amp;nbsp; &amp;nbsp; &amp;nbsp; &amp;nbsp; &amp;nbsp; &quot;netWorth&quot;: 6573077000,&amp;nbsp;&lt;/div&gt;&lt;div&gt;&amp;nbsp; &amp;nbsp; &amp;nbsp; &amp;nbsp; &amp;nbsp; &amp;nbsp; &amp;nbsp; &quot;ordinaryIncome&quot;: 373535000&lt;/div&gt;&lt;div&gt;&amp;nbsp; &amp;nbsp; &amp;nbsp; &amp;nbsp; &amp;nbsp; &amp;nbsp; },&amp;nbsp;&lt;/div&gt;&lt;div&gt;&amp;nbsp; &amp;nbsp; &amp;nbsp; &amp;nbsp; &amp;nbsp; &amp;nbsp; {&lt;/div&gt;&lt;div&gt;&amp;nbsp; &amp;nbsp; &amp;nbsp; &amp;nbsp; &amp;nbsp; &amp;nbsp; &amp;nbsp; &quot;amountOfSalls&quot;: 20253519000,&amp;nbsp;&lt;/div&gt;&lt;div&gt;&amp;nbsp; &amp;nbsp; &amp;nbsp; &amp;nbsp; &amp;nbsp; &amp;nbsp; &amp;nbsp; &quot;bps&quot;: 1120.02,&amp;nbsp;&lt;/div&gt;&lt;div&gt;&amp;nbsp; &amp;nbsp; &amp;nbsp; &amp;nbsp; &amp;nbsp; &amp;nbsp; &amp;nbsp; &quot;dividend&quot;: 177.62,&amp;nbsp;&lt;/div&gt;&lt;div&gt;&amp;nbsp; &amp;nbsp; &amp;nbsp; &amp;nbsp; &amp;nbsp; &amp;nbsp; &amp;nbsp; &quot;eps&quot;: 154.57,&amp;nbsp;&lt;/div&gt;&lt;div&gt;&amp;nbsp; &amp;nbsp; &amp;nbsp; &amp;nbsp; &amp;nbsp; &amp;nbsp; &amp;nbsp; &quot;fiscalYear&quot;: &quot;201906&quot;,&amp;nbsp;&lt;/div&gt;&lt;div&gt;&amp;nbsp; &amp;nbsp; &amp;nbsp; &amp;nbsp; &amp;nbsp; &amp;nbsp; &amp;nbsp; &quot;netIncome&quot;: 870228000,&amp;nbsp;&lt;/div&gt;&lt;div&gt;&amp;nbsp; &amp;nbsp; &amp;nbsp; &amp;nbsp; &amp;nbsp; &amp;nbsp; &amp;nbsp; &quot;netWorth&quot;: 6307865000,&amp;nbsp;&lt;/div&gt;&lt;div&gt;&amp;nbsp; &amp;nbsp; &amp;nbsp; &amp;nbsp; &amp;nbsp; &amp;nbsp; &amp;nbsp; &quot;ordinaryIncome&quot;: 1254686000&lt;/div&gt;&lt;div&gt;&amp;nbsp; &amp;nbsp; &amp;nbsp; &amp;nbsp; &amp;nbsp; &amp;nbsp; },&amp;nbsp;&lt;/div&gt;&lt;div&gt;&amp;nbsp; &amp;nbsp; &amp;nbsp; &amp;nbsp; &amp;nbsp; &amp;nbsp; {&lt;/div&gt;&lt;div&gt;&amp;nbsp; &amp;nbsp; &amp;nbsp; &amp;nbsp; &amp;nbsp; &amp;nbsp; &amp;nbsp; &quot;amountOfSalls&quot;: 19449158000,&amp;nbsp;&lt;/div&gt;&lt;div&gt;&amp;nbsp; &amp;nbsp; &amp;nbsp; &amp;nbsp; &amp;nbsp; &amp;nbsp; &amp;nbsp; &quot;bps&quot;: 57153.39,&amp;nbsp;&lt;/div&gt;&lt;div&gt;&amp;nbsp; &amp;nbsp; &amp;nbsp; &amp;nbsp; &amp;nbsp; &amp;nbsp; &amp;nbsp; &quot;dividend&quot;: 0.0,&amp;nbsp;&lt;/div&gt;&lt;div&gt;&amp;nbsp; &amp;nbsp; &amp;nbsp; &amp;nbsp; &amp;nbsp; &amp;nbsp; &amp;nbsp; &quot;eps&quot;: 7092.51,&amp;nbsp;&lt;/div&gt;&lt;div&gt;&amp;nbsp; &amp;nbsp; &amp;nbsp; &amp;nbsp; &amp;nbsp; &amp;nbsp; &amp;nbsp; &quot;fiscalYear&quot;: &quot;201806&quot;,&amp;nbsp;&lt;/div&gt;&lt;div&gt;&amp;nbsp; &amp;nbsp; &amp;nbsp; &amp;nbsp; &amp;nbsp; &amp;nbsp; &amp;nbsp; &quot;netIncome&quot;: 763636000,&amp;nbsp;&lt;/div&gt;&lt;div&gt;&amp;nbsp; &amp;nbsp; &amp;nbsp; &amp;nbsp; &amp;nbsp; &amp;nbsp; &amp;nbsp; &quot;netWorth&quot;: 6437636000,&amp;nbsp;&lt;/div&gt;&lt;div&gt;&amp;nbsp; &amp;nbsp; &amp;nbsp; &amp;nbsp; &amp;nbsp; &amp;nbsp; &amp;nbsp; &quot;ordinaryIncome&quot;: 1074787000&lt;/div&gt;&lt;div&gt;&amp;nbsp; &amp;nbsp; &amp;nbsp; &amp;nbsp; &amp;nbsp; &amp;nbsp; }&lt;/div&gt;&lt;div&gt;&amp;nbsp; &amp;nbsp; &amp;nbsp; &amp;nbsp; &amp;nbsp; ],&amp;nbsp;&lt;/div&gt;" style="whiteSpace=wrap;html=1;align=left;verticalAlign=top;" vertex="1" parent="lAavp4hnNdj44nGLBsUd-1">
                    <mxGeometry x="20" y="210" width="250" height="480" as="geometry"/>
                </mxCell>
                <mxCell id="wWYVYhUznrPvjUezDeAX-0" style="edgeStyle=orthogonalEdgeStyle;rounded=0;orthogonalLoop=1;jettySize=auto;html=1;strokeColor=#007FFF;entryX=0;entryY=0.25;entryDx=0;entryDy=0;" edge="1" parent="lAavp4hnNdj44nGLBsUd-1" target="poQ1xiTR2WBCP2Hb4bgy-0">
                    <mxGeometry relative="1" as="geometry">
                        <mxPoint x="410" y="310" as="targetPoint"/>
                        <mxPoint x="271" y="220" as="sourcePoint"/>
                    </mxGeometry>
                </mxCell>
                <mxCell id="wWYVYhUznrPvjUezDeAX-1" value="VueJsonToTableNew.vue&lt;br&gt;&lt;br&gt;&lt;div&gt;&amp;lt;template&amp;gt;&lt;span&gt;&amp;nbsp; &amp;nbsp;&lt;/span&gt;&lt;/div&gt;&lt;div&gt;&amp;nbsp; &amp;nbsp; &amp;lt;table border=&quot;1&quot;&amp;gt;&lt;/div&gt;&lt;div&gt;&amp;nbsp; &amp;nbsp; &amp;lt;tr&lt;/div&gt;&lt;div&gt;&amp;nbsp; &amp;nbsp; &amp;nbsp; v-for=&quot;(dataKey, index) in dataKeys&quot;&lt;/div&gt;&lt;div&gt;&amp;nbsp; &amp;nbsp; &amp;nbsp; :key=&quot;index&quot;&lt;/div&gt;&lt;div&gt;&amp;nbsp; &amp;nbsp; &amp;gt;&lt;/div&gt;&lt;div&gt;&lt;span&gt;&amp;nbsp; &amp;nbsp; &amp;nbsp; &amp;nbsp; &amp;nbsp; &amp;lt;th&amp;gt;&lt;/span&gt;&lt;br&gt;&lt;/div&gt;&lt;div&gt;&amp;nbsp; &amp;nbsp; &amp;nbsp; &amp;nbsp; &amp;nbsp; &amp;lt;p&amp;gt;hierarchy:{{hierarchy}}&amp;lt;/p&amp;gt;&lt;/div&gt;&lt;div&gt;&amp;nbsp; &amp;nbsp; &amp;nbsp; &amp;nbsp; &amp;nbsp; &amp;lt;p&amp;gt;arrIndex:{{arrIndex}}&amp;lt;/p&amp;gt;&lt;/div&gt;&lt;div&gt;&amp;nbsp; &amp;nbsp; &amp;nbsp; &amp;nbsp; &amp;nbsp;&amp;nbsp;&lt;/div&gt;&lt;div&gt;&amp;nbsp; &amp;nbsp; &amp;nbsp; &amp;nbsp; &amp;nbsp; &amp;lt;p&amp;gt;{{sameHeader(dataKey, index)}}&amp;lt;/p&amp;gt;&lt;/div&gt;&lt;div&gt;&amp;nbsp; &amp;nbsp; &amp;nbsp; &amp;nbsp; &amp;nbsp; &amp;lt;!-- &amp;lt;p&amp;gt;{{diffHeader}}&amp;lt;/p&amp;gt; --&amp;gt;&lt;/div&gt;&lt;div&gt;&amp;nbsp; &amp;nbsp; &amp;nbsp; &amp;nbsp; &amp;nbsp; &amp;lt;!-- &amp;lt;th v-if=&quot;!diffHeader&quot;&amp;gt; --&amp;gt;&lt;/div&gt;&lt;div&gt;&amp;nbsp; &amp;nbsp; &amp;nbsp; &amp;nbsp; &amp;nbsp; &amp;lt;th v-if=&quot;!sameHeader(dataKey, index)&quot;&amp;gt;&lt;/div&gt;&lt;div&gt;&amp;nbsp; &amp;nbsp; &amp;nbsp; &amp;nbsp; &amp;nbsp; &amp;nbsp; header:&lt;/div&gt;&lt;div&gt;&amp;nbsp; &amp;nbsp; &amp;nbsp; &amp;nbsp; &amp;nbsp; &amp;nbsp; {{ keyTitle(dataKey) }}&lt;/div&gt;&lt;div&gt;&amp;nbsp; &amp;nbsp; &amp;nbsp; &amp;nbsp; &amp;nbsp; &amp;lt;/th&amp;gt;&lt;/div&gt;&lt;div&gt;&amp;nbsp; &amp;nbsp; &amp;nbsp; &amp;lt;td v-if=&quot;['string', 'number'].includes(checkValueType(data[dataKey]))&quot;&amp;gt;&lt;/div&gt;&lt;div&gt;&amp;nbsp; &amp;nbsp; &amp;nbsp; &amp;nbsp; &amp;nbsp; data[dataKey]:&amp;nbsp;&lt;/div&gt;&lt;div&gt;&amp;nbsp; &amp;nbsp; &amp;nbsp; &amp;nbsp; &amp;nbsp; {{ data[dataKey] }}&lt;/div&gt;&lt;div&gt;&amp;nbsp; &amp;nbsp; &amp;nbsp; &amp;lt;/td&amp;gt;&lt;/div&gt;&lt;div&gt;&amp;nbsp; &amp;nbsp; &amp;nbsp; &amp;lt;div v-else-if=&quot;checkValueType(data[dataKey]) === 'array'&quot;&amp;gt;&lt;/div&gt;&lt;div&gt;&amp;nbsp; &amp;nbsp; &amp;nbsp; &amp;nbsp; &amp;lt;tr v-for=&quot;(arrRow, index2) in data[dataKey]&quot; :key=&quot;index2&quot; class=&quot;d-flex&quot;&amp;gt;&lt;/div&gt;&lt;div&gt;&amp;nbsp; &amp;nbsp; &amp;nbsp; &amp;nbsp; &amp;nbsp; &amp;lt;div&amp;gt;--&amp;lt;/div&amp;gt;&lt;/div&gt;&lt;div&gt;&amp;nbsp; &amp;nbsp; &amp;nbsp; &amp;nbsp; &amp;nbsp; &amp;lt;td v-if=&quot;['string', 'number'].includes(checkValueType(arrRow))&quot;&amp;gt;&lt;/div&gt;&lt;div&gt;&amp;nbsp; &amp;nbsp; &amp;nbsp; &amp;nbsp; &amp;nbsp; &amp;nbsp; arrRow:&lt;/div&gt;&lt;div&gt;&amp;nbsp; &amp;nbsp; &amp;nbsp; &amp;nbsp; &amp;nbsp; &amp;nbsp; {{ arrRow }}&lt;/div&gt;&lt;div&gt;&amp;nbsp; &amp;nbsp; &amp;nbsp; &amp;nbsp; &amp;nbsp; &amp;lt;/td&amp;gt;&lt;/div&gt;&lt;div&gt;&amp;nbsp; &amp;nbsp; &amp;nbsp; &amp;nbsp; &amp;nbsp; &amp;lt;div v-else&amp;gt;&lt;/div&gt;&lt;div&gt;&amp;nbsp; &amp;nbsp; &amp;nbsp; &amp;nbsp; &amp;nbsp; &amp;nbsp; &amp;lt;VueJsonToTable&amp;nbsp;&lt;/div&gt;&lt;div&gt;&amp;nbsp; &amp;nbsp; &amp;nbsp; &amp;nbsp; &amp;nbsp; &amp;nbsp; &amp;nbsp; :data=&quot;arrRow&quot;&lt;/div&gt;&lt;div&gt;&amp;nbsp; &amp;nbsp; &amp;nbsp; &amp;nbsp; &amp;nbsp; &amp;nbsp; &amp;nbsp; :previousData=&quot;data[dataKey]&quot;&lt;/div&gt;&lt;div&gt;&amp;nbsp; &amp;nbsp; &amp;nbsp; &amp;nbsp; &amp;nbsp; &amp;nbsp; &amp;nbsp; :hierarchy=&quot;hieNum&quot;&lt;/div&gt;&lt;div&gt;&amp;nbsp; &amp;nbsp; &amp;nbsp; &amp;nbsp; &amp;nbsp; &amp;nbsp; /&amp;gt;&lt;/div&gt;&lt;div&gt;&amp;nbsp; &amp;nbsp; &amp;nbsp; &amp;nbsp; &amp;nbsp; &amp;lt;/div&amp;gt;&lt;/div&gt;&lt;div&gt;&amp;nbsp; &amp;nbsp; &amp;nbsp; &amp;nbsp; &amp;lt;/tr&amp;gt;&lt;/div&gt;&lt;div&gt;&amp;nbsp; &amp;nbsp; &amp;nbsp; &amp;lt;/div&amp;gt;&lt;/div&gt;&lt;div&gt;&amp;nbsp; &amp;nbsp; &amp;nbsp; &amp;lt;div v-else&amp;gt;&lt;/div&gt;&lt;div&gt;&amp;nbsp; &amp;nbsp; &amp;nbsp; &amp;nbsp; &amp;lt;VueJsonToTable&lt;/div&gt;&lt;div&gt;&amp;nbsp; &amp;nbsp; &amp;nbsp; &amp;nbsp; &amp;nbsp; :data=&quot;data[dataKey]&quot;&lt;/div&gt;&lt;div&gt;&amp;nbsp; &amp;nbsp; &amp;nbsp; &amp;nbsp; &amp;nbsp; :previousData=&quot;dataKeys&quot;&lt;/div&gt;&lt;div&gt;&amp;nbsp; &amp;nbsp; &amp;nbsp; &amp;nbsp; &amp;nbsp; :hierarchy=&quot;hieNum&quot;&lt;/div&gt;&lt;div&gt;&amp;nbsp; &amp;nbsp; &amp;nbsp; &amp;nbsp; /&amp;gt;&lt;/div&gt;&lt;div&gt;&amp;nbsp; &amp;nbsp; &amp;nbsp; &amp;lt;/div&amp;gt;&lt;/div&gt;&lt;div&gt;&amp;nbsp; &amp;nbsp; &amp;lt;/tr&amp;gt;&lt;/div&gt;&lt;div&gt;&amp;nbsp; &amp;nbsp; &amp;lt;/table&amp;gt;&lt;/div&gt;&lt;div&gt;&amp;nbsp; &amp;lt;/div&amp;gt;&lt;/div&gt;&lt;div&gt;&amp;lt;/template&amp;gt;&lt;/div&gt;" style="whiteSpace=wrap;html=1;align=left;verticalAlign=top;" vertex="1" parent="lAavp4hnNdj44nGLBsUd-1">
                    <mxGeometry x="640" y="190" width="430" height="720" as="geometry"/>
                </mxCell>
                <mxCell id="wWYVYhUznrPvjUezDeAX-2" style="edgeStyle=orthogonalEdgeStyle;rounded=0;orthogonalLoop=1;jettySize=auto;html=1;strokeColor=#007FFF;" edge="1" parent="lAavp4hnNdj44nGLBsUd-1">
                    <mxGeometry relative="1" as="geometry">
                        <mxPoint x="260" y="280" as="targetPoint"/>
                        <mxPoint x="320" y="786" as="sourcePoint"/>
                        <Array as="points">
                            <mxPoint x="312" y="786"/>
                            <mxPoint x="610" y="786"/>
                            <mxPoint x="610" y="370"/>
                        </Array>
                    </mxGeometry>
                </mxCell>
                <mxCell id="wWYVYhUznrPvjUezDeAX-3" value="&lt;div&gt;&lt;/div&gt;" style="text;html=1;align=left;verticalAlign=middle;resizable=0;points=[];autosize=1;strokeColor=none;" vertex="1" parent="lAavp4hnNdj44nGLBsUd-1">
                    <mxGeometry x="30" y="55" width="20" height="10" as="geometry"/>
                </mxCell>
                <mxCell id="wWYVYhUznrPvjUezDeAX-5" value="&lt;div&gt;配列の添え字を管理するには、親に伝えないといけない。&lt;/div&gt;&lt;div&gt;&lt;br&gt;&lt;/div&gt;&lt;span&gt;[表示流れ]&lt;br&gt;1.親VJTTN: indpndntFininfoを表示し、値を出そうとするが、配列のため、VJTTNを再帰呼び出し&lt;/span&gt;&lt;br&gt;&lt;span&gt;2.子VJTTN&lt;/span&gt;&lt;span&gt;: indpndntFininfo[0]の中でamountOfSallsなどを表示&lt;br&gt;&lt;/span&gt;3.親VJTTN: indpndntFininfoを表示し、値を出そうとするが、配列のため、VJTTNを再帰呼び出し&lt;br&gt;4.子VJTTN&lt;span&gt;: indpndntFininfo[1]の中でamountOfSallsなどを表示&lt;br&gt;&lt;/span&gt;5.親VJTTN: indpndntFininfoを表示し、値を出そうとするが、配列のため、VJTTNを再帰呼び出し&lt;br&gt;6.子VJTTN&lt;span&gt;: indpndntFininfo[2]の中でamountOfSallsなどを表示&lt;/span&gt;&lt;span&gt;&lt;br&gt;&lt;/span&gt;" style="text;html=1;align=left;verticalAlign=middle;resizable=0;points=[];autosize=1;strokeColor=none;" vertex="1" parent="lAavp4hnNdj44nGLBsUd-1">
                    <mxGeometry x="20" y="5" width="540" height="130" as="geometry"/>
                </mxCell>
            </root>
        </mxGraphModel>
    </diagram>
</mxfile>